<svg width="21" height="21" viewBox="0 0 21 21" fill="none" xmlns="http://www.w3.org/2000/svg">
<g id="Frame">
<path id="Vector" d="M5.90625 2.625V4.59375M15.0938 2.625V4.59375M2.625 16.4062V6.5625C2.625 6.04036 2.83242 5.5396 3.20163 5.17038C3.57085 4.80117 4.07161 4.59375 4.59375 4.59375H16.4062C16.9284 4.59375 17.4292 4.80117 17.7984 5.17038C18.1676 5.5396 18.375 6.04036 18.375 6.5625V16.4062M2.625 16.4062C2.625 16.9284 2.83242 17.4292 3.20163 17.7984C3.57085 18.1676 4.07161 18.375 4.59375 18.375H16.4062C16.9284 18.375 17.4292 18.1676 17.7984 17.7984C18.1676 17.4292 18.375 16.9284 18.375 16.4062M2.625 16.4062V9.84375C2.625 9.32161 2.83242 8.82085 3.20163 8.45163C3.57085 8.08242 4.07161 7.875 4.59375 7.875H16.4062C16.9284 7.875 17.4292 8.08242 17.7984 8.45163C18.1676 8.82085 18.375 9.32161 18.375 9.84375V16.4062M10.5 11.1562H10.507V11.1633H10.5V11.1562ZM10.5 13.125H10.507V13.132H10.5V13.125ZM10.5 15.0938H10.507V15.1007H10.5V15.0938ZM8.53125 13.125H8.53825V13.132H8.53125V13.125ZM8.53125 15.0938H8.53825V15.1007H8.53125V15.0938ZM6.5625 13.125H6.5695V13.132H6.5625V13.125ZM6.5625 15.0938H6.5695V15.1007H6.5625V15.0938ZM12.4688 11.1562H12.4758V11.1633H12.4688V11.1562ZM12.4688 13.125H12.4758V13.132H12.4688V13.125ZM12.4688 15.0938H12.4758V15.1007H12.4688V15.0938ZM14.4375 11.1562H14.4445V11.1633H14.4375V11.1562ZM14.4375 13.125H14.4445V13.132H14.4375V13.125Z" stroke="black" stroke-width="1.5" stroke-linecap="round" stroke-linejoin="round"/>
</g>
</svg>
