<svg width="22" height="21" viewBox="0 0 22 21" fill="none" xmlns="http://www.w3.org/2000/svg">
<g id="Google_ G _Logo 1">
<path id="Vector" d="M20.0805 10.7188C20.0805 10.0363 20.0182 9.38 19.9024 8.75H10.6812V12.4775H15.9505C15.719 13.6763 15.0248 14.6913 13.9834 15.3738V17.7975H17.161C19.0124 16.1175 20.0805 13.65 20.0805 10.7188Z" fill="#4285F4"/>
<path id="Vector_2" d="M10.6811 20.1249C13.3246 20.1249 15.5409 19.2674 17.1609 17.7974L13.9833 15.3737C13.111 15.9512 11.9984 16.3012 10.6811 16.3012C8.13543 16.3012 5.97252 14.6124 5.19815 12.3374H1.94043V14.8224C3.55149 17.9637 6.8537 20.1249 10.6811 20.1249Z" fill="#34A853"/>
<path id="Vector_3" d="M5.19815 12.3288C5.00234 11.7513 4.88662 11.1388 4.88662 10.5C4.88662 9.86128 5.00234 9.24878 5.19815 8.67128V6.18628H1.94044C1.27287 7.48128 0.890137 8.94253 0.890137 10.5C0.890137 12.0575 1.27287 13.5188 1.94044 14.8138L4.47718 12.8713L5.19815 12.3288Z" fill="#FBBC05"/>
<path id="Vector_4" d="M10.6811 4.7075C12.123 4.7075 13.4047 5.1975 14.4283 6.1425L17.2321 3.38625C15.532 1.82875 13.3246 0.875 10.6811 0.875C6.8537 0.875 3.55149 3.03625 1.94043 6.18625L5.19815 8.67125C5.97252 6.39625 8.13543 4.7075 10.6811 4.7075Z" fill="#EA4335"/>
</g>
</svg>
